<svg width="20" height="20" viewBox="0 0 20 20" fill="none" xmlns="http://www.w3.org/2000/svg">
<path d="M6.17195 0.759051C7.3519 0.269748 8.64524 0 10 0C11.3548 0 12.6481 0.269748 13.828 0.759052C14.1469 0.891273 14.2982 1.25694 14.166 1.57579C14.0337 1.89464 13.6681 2.04593 13.3492 1.91371C12.3184 1.48624 11.1876 1.25 10 1.25C8.81242 1.25 7.6816 1.48624 6.65077 1.91371C6.33192 2.04593 5.96626 1.89464 5.83403 1.57579C5.70181 1.25694 5.85311 0.891273 6.17195 0.759051Z" fill="#565B60"/>
<path d="M1.57579 5.83403C1.89464 5.96626 2.04593 6.33192 1.91371 6.65077C1.48624 7.6816 1.25 8.81242 1.25 10C1.25 11.1876 1.48624 12.3184 1.91371 13.3492C2.04593 13.6681 1.89464 14.0337 1.57579 14.166C1.25694 14.2982 0.891273 14.1469 0.759051 13.828C0.269748 12.6481 0 11.3548 0 10C0 8.64524 0.269748 7.3519 0.759052 6.17195C0.891273 5.8531 1.25694 5.70181 1.57579 5.83403Z" fill="#565B60"/>
<path d="M18.4242 5.83403C18.7431 5.70181 19.1087 5.85311 19.2409 6.17195C19.7303 7.3519 20 8.64524 20 10C20 11.3548 19.7303 12.6481 19.2409 13.828C19.1087 14.1469 18.7431 14.2982 18.4242 14.166C18.1054 14.0337 17.9541 13.6681 18.0863 13.3492C18.5138 12.3184 18.75 11.1876 18.75 10C18.75 8.81242 18.5138 7.6816 18.0863 6.65077C17.9541 6.33192 18.1054 5.96626 18.4242 5.83403Z" fill="#565B60"/>
<path d="M5.83403 18.4242C5.96626 18.1054 6.33192 17.9541 6.65077 18.0863C7.6816 18.5138 8.81242 18.75 10 18.75C11.1876 18.75 12.3184 18.5138 13.3492 18.0863C13.6681 17.9541 14.0337 18.1054 14.166 18.4242C14.2982 18.7431 14.1469 19.1087 13.828 19.2409C12.6481 19.7303 11.3548 20 10 20C8.64524 20 7.3519 19.7303 6.17195 19.2409C5.8531 19.1087 5.70181 18.7431 5.83403 18.4242Z" fill="#565B60"/>
<path d="M10 6.09375C10.4315 6.09375 10.7812 6.44353 10.7812 6.875V9.21875H13.125C13.5565 9.21875 13.9062 9.56853 13.9062 10C13.9062 10.4315 13.5565 10.7812 13.125 10.7812H10.7812V13.125C10.7812 13.5565 10.4315 13.9062 10 13.9062C9.56853 13.9062 9.21875 13.5565 9.21875 13.125V10.7812H6.875C6.44353 10.7812 6.09375 10.4315 6.09375 10C6.09375 9.56853 6.44353 9.21875 6.875 9.21875H9.21875V6.875C9.21875 6.44353 9.56853 6.09375 10 6.09375Z" fill="#565B60"/>
</svg>
